<?xml version="1.0" encoding="UTF-8" standalone="no"?>
<!-- Uploaded to: SVG Repo, www.svgrepo.com, Generator: SVG Repo Mixer Tools -->

<svg
   width="32px"
   height="32px"
   viewBox="0 0 32 32"
   id="Layer_1"
   version="1.1"
   xmlns="http://www.w3.org/2000/svg"
   xmlns:svg="http://www.w3.org/2000/svg">
  <g
     id="g1"
     transform="matrix(0.61527308,0,0,0.61520889,0.00905275,-0.00465922)">
    <path
      fill="currentColor"
       d="m 14.160183,11.185355 -0.951945,-5.9496571 6.663615,-2.9748283 5.771168,5.7711668 5.71167,-5.6521737 6.604119,2.3798627 0.17849,8.5675056 9.638444,0.416476 1.784897,7.080091 -6.128147,5.116706 6.306636,6.485126 -2.498855,6.128146 c 0,0 -8.924486,-1.011442 -8.627003,-0.35698 0.297483,0.654463 -0.475972,9.221968 -0.475972,9.221968 l -6.306636,2.855836 -5.592678,-6.42563 -6.247139,6.06865 c 0,0 -7.258581,-2.379863 -7.080092,-2.617849 0.17849,-0.237986 0.356979,-8.805492 0.356979,-8.805492 l -9.0434777,-0.118993 -2.201373,-5.89016 c 0,0 5.8306637,-5.89016 5.6521737,-6.187643 C 7.4965676,26 1.8443936,19.693364 1.8443936,19.693364 l 2.9153318,-6.306636 7.9130436,-0.237987 z"
       id="path2" />
    <path
       d="m 32.26,52 c -0.938551,9.9e-4 -1.820369,-0.449221 -2.37,-1.21 l -3.48,-4.73 h -0.82 l -3.48,4.74 c -0.793005,1.105496 -2.242658,1.519683 -3.5,1 L 13,49.45 c -1.256415,-0.516309 -1.993214,-1.828473 -1.78,-3.17 l 0.89,-5.8 -0.59,-0.59 -5.8,0.89 C 4.3784735,40.993214 3.0663086,40.256415 2.55,39 L 0.23,33.39 c -0.52359383,-1.257117 -0.10869796,-2.709252 1,-3.5 L 5.96,26.41 V 25.59 L 1.21,22.11 c -1.10869796,-0.790748 -1.52359383,-2.242883 -1,-3.5 L 2.55,13 c 0.5163086,-1.256415 1.8284735,-1.993214 3.17,-1.78 l 5.8,0.89 0.59,-0.59 -0.89,-5.8 C 11.006786,4.3784735 11.743585,3.0663086 13,2.55 l 5.61,-2.32 c 1.257342,-0.51968266 2.706995,-0.10549608 3.5,1 l 3.48,4.74 h 0.82 l 3.48,-4.73 c 0.793005,-1.10549608 2.242658,-1.51968266 3.5,-1 L 39,2.55 c 1.256415,0.5163086 1.993214,1.8284735 1.78,3.17 l -0.89,5.8 0.59,0.59 5.8,-0.89 c 1.341527,-0.213214 2.653691,0.523585 3.17,1.78 l 2.32,5.61 c 0.523594,1.257117 0.108698,2.709252 -1,3.5 l -4.73,3.48 v 0.82 l 4.73,3.48 c 1.108698,0.790748 1.523594,2.242883 1,3.5 L 49.45,39 c -0.516309,1.256415 -1.828473,1.993214 -3.17,1.78 l -5.8,-0.89 -0.59,0.59 0.89,5.8 c 0.213214,1.341527 -0.523585,2.653691 -1.78,3.17 l -5.61,2.32 c -0.356803,0.153685 -0.741512,0.231988 -1.13,0.23 z m -17,-5.93 4.09,1.69 3.3,-4.49 c 0.551813,-0.758229 1.432235,-1.207727 2.37,-1.21 H 27 c 0.9337,0.0094 1.809799,0.452967 2.37,1.2 l 3.3,4.5 4.09,-1.69 -0.85,-5.51 C 35.751268,39.633149 36.036304,38.685496 36.68,38 L 38,36.69 c 0.667635,-0.656265 1.603357,-0.963241 2.53,-0.83 l 5.51,0.85 1.69,-4.09 -4.49,-3.3 C 42.507121,28.772386 42.070939,27.914808 42.06,27 v -1.9 c 0.0023,-0.937765 0.451771,-1.818187 1.21,-2.37 l 4.49,-3.3 -1.69,-4.13 -2.562378,0.390635 -1.757125,0.267874 L 40.56,16.14 C 39.62348,16.283071 38.67441,15.975364 38,15.31 L 36.69,14 c -0.656265,-0.667635 -0.963241,-1.603357 -0.83,-2.53 l 0.85,-5.51 -4.09,-1.72 -3.3,4.5 C 28.770522,9.4733298 27.916018,9.9153147 27,9.94 H 25.1 C 24.162235,9.9377269 23.281813,9.4882286 22.73,8.73 l -3.3,-4.49 -4.14,1.69 0.85,5.51 c 0.143071,0.93652 -0.164636,1.88559 -0.83,2.56 L 14,15.31 c -0.667635,0.656265 -1.603357,0.963241 -2.53,0.83 l -5.54,-0.84 -1.69,4.08 4.49,3.3 c 0.7582286,0.551813 1.2077269,1.432235 1.21,2.37 V 27 c -0.00227,0.937765 -0.4517714,1.818187 -1.21,2.37 l -4.49,3.3 1.69,4.09 5.51,-0.85 c 0.927467,-0.142965 1.867461,0.165412 2.53,0.83 L 15.31,38 c 0.664588,0.662539 0.972965,1.602533 0.83,2.53 z M 26,38 C 15.308398,38 9.955962,25.074337 17.51515,17.51515 25.074337,9.955962 38,15.308398 38,26 38,32.627417 32.627417,38 26,38 Z M 26,18 C 18.872266,18 15.303975,26.617108 20.343433,31.656567 25.382892,36.696025 34,33.127734 34,26 34,21.581722 30.418278,18 26,18 Z"
       id="path1" fill="#000" />
  </g>
</svg>
